<svg width="176" height="43" viewBox="0 0 176 43" fill="none" xmlns="http://www.w3.org/2000/svg">
<path d="M24.248 6.136C25.72 4.792 26.904 3.96 27.608 3.96C28.76 3.96 30.04 5.08 30.2 6.392C29.976 6.04 29.624 5.944 29.336 5.944C28.376 5.944 26.104 7.992 23.384 11.032C22.52 11.992 21.688 13.016 20.76 14.168C21.56 14.136 22.296 14.104 23 14.104C27.96 14.104 29.752 15 29.592 15.032C29.432 15.064 28.568 14.84 26.616 14.84C25.688 14.84 24.504 14.872 23.064 15.032C21.944 15.16 20.792 15.32 19.672 15.512C14.392 22.168 9.4 29.912 9.4 32.056C9.4 32.248 9.496 32.408 9.656 32.408C10.328 32.408 10.776 32.056 11.288 31.736C10.744 32.376 9.72 33.208 9.112 33.208C8.632 33.208 8.12 32.632 8.12 31.96C8.12 28.76 11.448 22.36 15.512 16.504C11.064 17.816 7.64 19.672 7.768 20.92C7.8 21.464 6.648 20.152 6.584 19.48C6.36 17.016 12.312 15.352 16.888 14.616C19.096 11.608 21.336 8.888 24.248 6.136ZM48.664 3.32C47.864 3.032 39.48 1.56 31.704 1.56C14.296 1.56 2.744 8.696 2.744 12.312C2.744 14.392 6.296 15.288 6.552 15.416C6.552 15.416 6.52 15.448 6.392 15.448C4.248 15.448 0.6 14.616 0.632 11.8C0.76 4.76 15.48 0.247999 30.776 0.247999C37.56 0.247999 46.328 1.848 48.824 3.128C49.304 3.352 48.888 3.416 48.664 3.32ZM26.011 18.488C27.131 16.856 28.507 15.224 29.307 14.584C29.499 14.456 29.627 14.424 29.755 14.424C30.523 14.424 31.739 15.672 31.739 16.472C31.739 16.6 31.643 16.44 31.387 16.408C30.907 16.376 29.787 17.624 28.827 18.904C27.963 20.056 26.843 21.56 26.171 22.744C27.867 20.536 31.067 17.848 33.819 15.864C35.067 14.968 36.027 14.424 36.699 14.36C37.051 14.328 38.363 15.704 38.139 15.96C37.435 16.696 34.779 19.032 33.723 21.528C35.259 21.4 37.467 19.96 39.451 18.2C39.483 18.168 39.675 18.136 39.707 18.2C39.131 18.968 35.291 22.552 33.083 22.552C32.507 22.552 31.547 21.432 31.547 21.048C31.547 20.152 32.571 18.296 33.403 17.336C30.459 19.064 28.955 20.344 26.779 22.744C25.147 24.504 23.227 27.32 23.931 27.64C23.003 27.864 22.235 26.872 22.011 25.976C21.947 25.688 22.107 25.08 22.491 24.344C23.291 22.52 24.731 20.312 26.011 18.488ZM43.2343 24.344C43.6183 23.16 44.4823 21.688 45.0903 20.888C44.1302 21.848 37.8903 27.224 36.5463 27.224C36.4823 27.224 36.3223 27.16 36.2583 27.128C35.6822 26.84 34.8503 25.624 34.8503 24.984C34.8503 21.496 42.1783 14.36 48.0663 14.36C49.2823 14.36 50.8823 14.872 50.8823 16.376C50.8823 16.92 50.5943 17.464 50.2743 17.88C50.2103 17.912 50.1463 17.88 50.1783 17.848C50.3383 17.56 50.5303 17.176 50.5303 16.696C50.5303 15.736 49.9223 15.256 48.9623 15.32C47.1063 15.416 44.7703 16.76 42.6903 18.52C39.6503 21.112 37.2503 25.144 37.5383 25.304C37.6023 25.336 37.6663 25.336 37.7623 25.304C38.8183 24.952 43.2983 21.72 44.9623 20.312C45.5383 19.8 47.6183 17.784 48.4183 17.336C49.0583 17.016 50.1463 18.776 50.0183 19.16C49.8583 18.84 46.9783 22.328 46.0183 24.376C45.8263 24.824 45.6983 25.208 45.6983 25.464C47.7143 24.888 52.2903 20.504 54.2743 18.648C54.4343 18.488 54.5943 18.744 54.4983 18.84C51.7143 21.88 46.4983 27.224 44.5783 27.224C44.4183 27.224 44.2583 27.16 44.0343 27.032C43.5863 26.776 42.9783 26.104 42.9783 25.528C42.9783 25.208 43.1063 24.824 43.2343 24.344ZM65.8838 27.224C65.1478 27.224 64.2198 26.008 64.2198 25.4C64.2198 23.576 67.7078 18.232 69.3718 16.696C63.5478 20.728 60.2198 26.264 59.3238 26.264C58.8758 26.264 57.8518 25.24 57.8518 24.6C57.8518 23.384 60.3158 18.776 62.4598 16.824C59.2278 18.776 56.2518 21.784 53.9158 24.408C53.3718 25.016 53.0198 25.432 52.7958 25.72C51.8997 26.776 51.7398 27.416 52.2198 27.64C51.2598 27.864 50.4277 26.872 50.1717 25.976C50.1077 25.752 50.2357 24.888 51.0678 23.416C52.4438 20.824 54.3638 17.88 56.1238 15.8C56.5718 15.256 57.0198 14.808 57.3718 14.52C57.4998 14.392 57.6918 14.36 57.7878 14.36C58.5878 14.36 59.8038 15.608 59.8038 16.408C59.8038 16.536 59.6758 16.376 59.4198 16.344C59.1958 16.312 58.7478 16.632 58.3318 17.144C56.9558 18.712 54.1398 22.904 53.4038 24.152C55.4518 21.432 62.3638 15.192 63.7078 14.904C63.7718 14.872 63.8358 14.872 63.8998 14.872C64.5398 14.872 65.5958 16.472 65.2758 16.792C63.6438 18.52 60.7638 23.128 60.7638 24.248C63.7718 20.44 69.8518 14.52 71.1958 14.52C71.8998 14.52 72.9558 16.248 72.5398 16.6C71.7398 17.24 66.7478 24.184 66.7478 25.592C68.8278 25.112 73.4998 20.6 75.5478 18.648C75.7718 18.488 75.9318 18.744 75.8358 18.84C73.0518 21.88 67.7718 27.224 65.8838 27.224ZM75.1078 22.68C74.5318 23.352 73.9238 24.376 73.8278 25.208C73.7958 25.592 74.0838 25.816 74.7878 25.816C77.1238 25.816 82.9798 21.368 86.2118 18.68C86.3078 18.616 86.5318 18.776 86.4358 18.872C84.0358 21.112 77.6678 27.224 73.4118 27.224C72.4198 27.224 71.1397 26.072 71.1397 25.208C71.1397 24.44 71.3317 23.8 71.5877 23.096C72.3558 21.272 73.9878 19.256 76.0038 17.56C78.6598 15.352 81.5078 14.36 82.8838 14.36C83.3638 14.36 84.8358 15.096 84.8358 15.992C84.8358 17.976 78.6918 22.584 75.1078 22.68ZM83.8118 15.32C80.2598 16.472 76.5798 20.344 75.5238 22.04C78.3078 21.72 83.6198 16.536 83.8118 15.32ZM117.722 4.376C117.722 7.576 112.666 12.024 109.53 12.024C108.698 12.024 108.186 10.968 108.186 9.976C108.186 9.208 109.69 7.8 110.01 7.8C110.074 7.8 109.114 8.984 109.306 9.24C111.482 9.24 116.538 6.392 116.538 3.8C116.538 2.36 115.29 1.528 113.306 1.528C103.45 1.528 86.2023 18.232 86.9062 27.16C87.1302 29.848 89.1143 30.584 91.5783 30.584C97.5943 30.584 107.386 25.176 114.97 19.032C115.002 19 115.354 19.16 115.226 19.224C109.594 24.728 97.5303 32.856 90.5223 32.696C87.0983 32.632 84.1223 31.128 83.9303 27.224C83.2903 16.024 102.202 0.727999 112.986 0.727999C115.77 0.727999 117.722 1.912 117.722 4.376ZM113.949 18.488C115.069 16.856 116.445 15.224 117.245 14.584C117.437 14.456 117.565 14.424 117.693 14.424C118.461 14.424 119.677 15.672 119.677 16.472C119.677 16.6 119.581 16.44 119.325 16.408C118.845 16.376 117.725 17.624 116.765 18.904C115.901 20.056 114.781 21.56 114.109 22.744C115.805 20.536 119.005 17.848 121.757 15.864C123.005 14.968 123.965 14.424 124.637 14.36C124.989 14.328 126.301 15.704 126.077 15.96C125.373 16.696 122.717 19.032 121.661 21.528C123.197 21.4 125.405 19.96 127.389 18.2C127.421 18.168 127.613 18.136 127.645 18.2C127.069 18.968 123.229 22.552 121.021 22.552C120.445 22.552 119.485 21.432 119.485 21.048C119.485 20.152 120.509 18.296 121.341 17.336C118.397 19.064 116.893 20.344 114.717 22.744C113.085 24.504 111.165 27.32 111.868 27.64C110.941 27.864 110.172 26.872 109.948 25.976C109.884 25.688 110.044 25.08 110.428 24.344C111.229 22.52 112.669 20.312 113.949 18.488ZM131.172 24.344C131.556 23.16 132.42 21.688 133.028 20.888C132.068 21.848 125.828 27.224 124.484 27.224C124.42 27.224 124.26 27.16 124.196 27.128C123.62 26.84 122.788 25.624 122.788 24.984C122.788 21.496 130.116 14.36 136.004 14.36C137.22 14.36 138.82 14.872 138.82 16.376C138.82 16.92 138.532 17.464 138.212 17.88C138.148 17.912 138.084 17.88 138.116 17.848C138.276 17.56 138.468 17.176 138.468 16.696C138.468 15.736 137.86 15.256 136.9 15.32C135.044 15.416 132.708 16.76 130.628 18.52C127.588 21.112 125.188 25.144 125.476 25.304C125.54 25.336 125.604 25.336 125.7 25.304C126.756 24.952 131.236 21.72 132.9 20.312C133.476 19.8 135.556 17.784 136.356 17.336C136.996 17.016 138.084 18.776 137.956 19.16C137.796 18.84 134.916 22.328 133.956 24.376C133.764 24.824 133.636 25.208 133.636 25.464C135.652 24.888 140.228 20.504 142.212 18.648C142.372 18.488 142.532 18.744 142.436 18.84C139.652 21.88 134.436 27.224 132.516 27.224C132.356 27.224 132.196 27.16 131.972 27.032C131.524 26.776 130.916 26.104 130.916 25.528C130.916 25.208 131.044 24.824 131.172 24.344ZM149.693 7.032C150.653 5.784 151.581 4.76 152.317 4.12C152.829 3.736 153.245 3.48 153.501 3.48C155.325 3.384 156.605 5.24 155.997 4.888C154.909 4.376 152.797 7.384 151.453 9.112C149.021 12.152 146.749 15.608 143.197 21.144L143.229 21.208C145.565 20.44 150.173 18.104 151.773 16.76C151.805 16.696 151.837 16.664 151.901 16.664C151.997 16.664 152.061 16.76 152.061 16.824C152.061 16.856 152.061 16.888 152.061 16.888C151.069 17.848 147.997 19.8 145.341 21.208C144.733 21.528 143.645 22.072 143.165 22.168C143.389 22.808 143.613 24.056 143.613 25.368C143.613 25.976 143.549 26.616 143.453 27.192C141.693 36.312 133.693 42.648 132.317 42.712H132.221C131.581 42.744 130.813 41.656 130.781 41.112C130.685 39.32 134.397 30.936 139.613 22.104C138.749 21.4 139.997 19.704 140.957 19.704C143.997 14.84 147.229 10.2 149.693 7.032ZM132.893 40.792C132.957 40.824 133.021 40.792 133.213 40.664C136.989 37.848 141.885 32.824 142.973 26.104C143.037 25.784 143.069 25.4 143.069 24.984C143.069 23.96 142.877 22.776 142.461 22.232C138.781 28.12 134.301 37.048 132.957 40.376C132.829 40.632 132.829 40.792 132.893 40.792ZM155.246 9.048C157.742 5.784 158.638 4.76 159.438 4.12C159.918 3.736 160.334 3.48 160.622 3.48C162.414 3.384 163.694 5.24 163.086 4.888C162.062 4.408 160.174 6.968 158.766 8.792C163.918 8.536 170.67 8.792 175.246 9.752C175.502 9.816 175.63 9.88 175.246 9.848C168.91 9.304 163.054 9.336 157.71 10.136C156.526 11.608 155.47 13.208 154.19 15.096C151.406 19.32 149.006 23.384 148.238 25.432C149.614 25.592 154.926 20.376 156.814 18.648C157.006 18.488 157.134 18.744 157.038 18.84C155.47 20.632 149.902 26.456 147.982 27.16C147.566 27.32 147.246 27.192 146.958 27.032C146.702 26.904 145.998 26.232 145.806 25.752C145.774 25.688 145.71 25.624 145.71 25.272C145.71 24.312 147.15 21.176 151.086 15.096C151.95 13.784 152.878 12.376 154.062 10.808C151.022 11.416 149.134 12.952 149.966 13.432C149.454 13.432 148.366 12.824 148.27 11.8C148.142 10.36 151.662 9.464 155.246 9.048Z" fill="#B20021"/>
</svg>
