<svg width="30" height="31" viewBox="0 0 30 31" fill="none" xmlns="http://www.w3.org/2000/svg">
<path d="M18 9.96665C17.9994 9.79781 17.9503 9.6327 17.8584 9.49103C17.7666 9.34936 17.6359 9.2371 17.482 9.16765C17.5812 9.03082 17.6387 8.86817 17.6475 8.69937C17.6563 8.53057 17.616 8.36284 17.5315 8.21646C17.447 8.07007 17.3219 7.9513 17.1713 7.87449C17.0207 7.79768 16.8511 7.76613 16.683 7.78365C16.7007 7.61545 16.6693 7.44571 16.5926 7.29498C16.5159 7.14425 16.3971 7.01899 16.2507 6.93434C16.1043 6.8497 15.9365 6.80931 15.7676 6.81806C15.5987 6.82681 15.4359 6.88433 15.299 6.98365C15.2301 6.82932 15.118 6.69824 14.9762 6.60626C14.8344 6.51428 14.669 6.46533 14.5 6.46533C14.331 6.46533 14.1656 6.51428 14.0238 6.60626C13.882 6.69824 13.7699 6.82932 13.701 6.98365C13.5641 6.88433 13.4014 6.82681 13.2324 6.81806C13.0635 6.80931 12.8957 6.8497 12.7493 6.93434C12.6029 7.01899 12.4841 7.14425 12.4074 7.29498C12.3307 7.44571 12.2993 7.61545 12.317 7.78365C12.1488 7.76591 11.9791 7.7973 11.8283 7.87402C11.6776 7.95074 11.5523 8.0695 11.4677 8.21593C11.3831 8.36236 11.3427 8.53019 11.3514 8.69909C11.3602 8.868 11.4177 9.03075 11.517 9.16765C11.3627 9.23654 11.2316 9.34866 11.1396 9.49045C11.0476 9.63224 10.9987 9.79764 10.9987 9.96665C10.9987 10.1357 11.0476 10.3011 11.1396 10.4428C11.2316 10.5846 11.3627 10.6968 11.517 10.7656C11.4177 10.9025 11.3602 11.0653 11.3514 11.2342C11.3427 11.4031 11.3831 11.5709 11.4677 11.7174C11.5523 11.8638 11.6776 11.9826 11.8283 12.0593C11.9791 12.136 12.1488 12.1674 12.317 12.1496C12.2993 12.3178 12.3307 12.4876 12.4074 12.6383C12.4841 12.789 12.6029 12.9143 12.7493 12.999C12.8957 13.0836 13.0635 13.124 13.2324 13.1152C13.4014 13.1065 13.5641 13.049 13.701 12.9496C13.7699 13.104 13.882 13.2351 14.0238 13.327C14.1656 13.419 14.331 13.468 14.5 13.468C14.669 13.468 14.8344 13.419 14.9762 13.327C15.118 13.2351 15.2301 13.104 15.299 12.9496C15.4359 13.049 15.5987 13.1065 15.7676 13.1152C15.9365 13.124 16.1043 13.0836 16.2507 12.999C16.3971 12.9143 16.5159 12.789 16.5926 12.6383C16.6693 12.4876 16.7007 12.3178 16.683 12.1496C16.8512 12.1674 17.0209 12.136 17.1717 12.0593C17.3224 11.9826 17.4477 11.8638 17.5323 11.7174C17.6169 11.5709 17.6573 11.4031 17.6486 11.2342C17.6398 11.0653 17.5823 10.9025 17.483 10.7656C17.6367 10.696 17.7672 10.5837 17.8588 10.4421C17.9505 10.3004 17.9995 10.1354 18 9.96665ZM14.5 12.4666C13.837 12.4666 13.2011 12.2033 12.7322 11.7344C12.2634 11.2656 12 10.6297 12 9.96665C12 9.30361 12.2634 8.66772 12.7322 8.19888C13.2011 7.73004 13.837 7.46665 14.5 7.46665C15.163 7.46665 15.7989 7.73004 16.2678 8.19888C16.7366 8.66772 17 9.30361 17 9.96665C17 10.6297 16.7366 11.2656 16.2678 11.7344C15.7989 12.2033 15.163 12.4666 14.5 12.4666Z" fill="#B20021"/>
<path d="M26 26.4666H4V4.46655H26V26.4666ZM24.667 8.58055C24.7684 8.45512 24.8798 8.33808 25 8.23055V5.46655H5V8.63655C5.563 8.83655 6.048 9.19855 6.4 9.66655C6.54857 9.55513 6.72523 9.48727 6.91019 9.47059C7.09516 9.45392 7.28111 9.48907 7.44721 9.57213C7.61332 9.65518 7.75302 9.78285 7.85065 9.94082C7.94829 10.0988 8 10.2808 8 10.4666C8.53043 10.4666 9.03914 10.6773 9.41421 11.0523C9.78929 11.4274 10 11.9361 10 12.4666C10 12.997 9.78929 13.5057 9.41421 13.8808C9.03914 14.2558 8.53043 14.4666 8 14.4666H5V16.8486L6.521 16.0886C7.633 15.4386 9.541 15.1186 11.447 16.0716L15.447 18.0716C15.61 18.1536 15.688 18.1616 15.71 18.1626C15.722 18.1626 15.744 18.1636 15.803 18.1346C15.878 18.0976 15.99 18.0216 16.166 17.8666C16.341 17.7106 16.536 17.5166 16.793 17.2596L19.682 14.3706C19.307 13.9141 19.0751 13.3571 19.0153 12.7694C18.9556 12.1817 19.0707 11.5894 19.3463 11.0668C19.6218 10.5443 20.0455 10.1147 20.5642 9.83198C21.0829 9.54925 21.6735 9.42596 22.262 9.47755C22.494 9.06966 22.862 8.75632 23.3016 8.59234C23.7413 8.42836 24.2246 8.42419 24.667 8.58055ZM22 13.4666L17.5 17.9666C16.5 18.9666 16 19.4666 15 18.9666L11 16.9666C9.4 16.1666 7.833 16.4666 7 16.9666L5 17.9666V25.3736C7.541 23.3016 11.083 21.9666 15 21.9666C18.917 21.9666 22.459 23.3016 25 25.3736V11.5586C23.995 11.7616 23.143 12.3236 22 13.4666Z" fill="#B20021"/>
<path d="M0 1.46655C0 1.20134 0.105357 0.946982 0.292893 0.759446C0.48043 0.57191 0.734784 0.466553 1 0.466553H29C29.2652 0.466553 29.5196 0.57191 29.7071 0.759446C29.8946 0.946982 30 1.20134 30 1.46655V29.4666C30 29.7318 29.8946 29.9861 29.7071 30.1737C29.5196 30.3612 29.2652 30.4666 29 30.4666H1C0.734784 30.4666 0.48043 30.3612 0.292893 30.1737C0.105357 29.9861 0 29.7318 0 29.4666V1.46655ZM2 2.46655V28.4666H28V2.46655H2Z" fill="#B20021"/>
</svg>
