<svg width="20" height="21" viewBox="0 0 20 21" fill="none" xmlns="http://www.w3.org/2000/svg">
<path d="M14.2797 12.1749L14.6741 11.7831L13.7581 10.8629L13.3655 11.2547L14.2797 12.1749ZM15.9965 11.6188L17.6493 12.5174L18.2677 11.3775L16.6157 10.4797L15.9965 11.6188ZM17.9667 14.3025L16.7385 15.5246L17.6527 16.444L18.8809 15.2228L17.9667 14.3025ZM15.9896 15.9173C14.7355 16.0349 11.4921 15.9302 7.97896 12.4378L7.06391 13.3572C10.8971 17.1688 14.5461 17.3556 16.1106 17.2094L15.9896 15.9173ZM7.97896 12.4378C4.63099 9.108 4.07573 6.30836 4.00654 5.0932L2.71094 5.16671C2.79742 6.69583 3.48501 9.79905 7.06391 13.3572L7.97896 12.4378ZM9.16819 7.09282L9.41641 6.84546L8.50309 5.92608L8.25486 6.17258L9.16819 7.09282ZM9.6136 3.70159L8.52384 2.24512L7.48511 3.02352L8.57487 4.47913L9.6136 3.70159ZM4.85586 1.92771L3.49798 3.27693L4.41303 4.19717L5.77004 2.84795L4.85586 1.92771ZM8.71152 6.6327C8.25313 6.17258 8.25313 6.17258 8.25313 6.17431H8.2514L8.24881 6.17776C8.20797 6.21944 8.1712 6.26491 8.13897 6.31355C8.09227 6.38274 8.04124 6.47356 7.99799 6.58859C7.89268 6.88552 7.86645 7.20474 7.92188 7.51488C8.03778 8.26301 8.55325 9.25158 9.87307 10.5645L10.7881 9.64423C9.5522 8.41609 9.25813 7.66883 9.20365 7.31596C9.1777 7.14817 9.20451 7.06514 9.21229 7.04611C9.21662 7.034 9.21835 7.03314 9.21229 7.04092C9.20467 7.05292 9.19598 7.0642 9.18635 7.07465L9.1777 7.0833C9.1749 7.08599 9.17202 7.08859 9.16905 7.09109L8.71152 6.6327ZM9.87307 10.5645C11.1938 11.8774 12.1875 12.3894 12.9365 12.5036C13.3196 12.5624 13.6284 12.5157 13.8628 12.4283C13.9939 12.3798 14.1165 12.3109 14.226 12.2242C14.2409 12.2117 14.2554 12.1988 14.2693 12.1853L14.2753 12.1801L14.2779 12.1775L14.2788 12.1758C14.2788 12.1758 14.2797 12.1749 13.8221 11.7148C13.3638 11.2547 13.3663 11.2538 13.3663 11.2538L13.3681 11.2521L13.3698 11.2503L13.375 11.246L13.3836 11.2374C13.394 11.228 13.405 11.2194 13.4165 11.2114C13.4252 11.2054 13.4226 11.208 13.4105 11.2131C13.3888 11.2209 13.3041 11.2477 13.1337 11.2218C12.7756 11.1664 12.0232 10.8724 10.7881 9.64423L9.87307 10.5645ZM8.52384 2.24426C7.64166 1.06801 5.90842 0.881195 4.85586 1.92771L5.77004 2.84795C6.23016 2.39042 7.04662 2.43799 7.48511 3.02352L8.52384 2.24426ZM4.0074 5.09406C3.9901 4.79481 4.12762 4.48172 4.41303 4.19804L3.49712 3.2778C3.03267 3.73965 2.66683 4.3935 2.71094 5.16671L4.0074 5.09406ZM16.7385 15.5246C16.5016 15.7616 16.2456 15.8948 15.9904 15.9181L16.1106 17.2094C16.7463 17.1497 17.2661 16.8297 17.6536 16.4448L16.7385 15.5246ZM9.41641 6.84546C10.2683 5.99873 10.3315 4.66075 9.61447 3.70246L8.57574 4.47999C8.92429 4.94617 8.87239 5.55764 8.50222 5.92695L9.41641 6.84546ZM17.6501 12.5183C18.3567 12.9023 18.4666 13.8069 17.9675 14.3034L18.8826 15.2228C20.0415 14.0699 19.6844 12.1472 18.2685 11.3783L17.6501 12.5183ZM14.6741 11.784C15.0062 11.4536 15.5407 11.3723 15.9973 11.6196L16.6166 10.4806C15.6791 9.9703 14.5166 10.1113 13.759 10.8637L14.6741 11.784Z" fill="#2F4858"/>
</svg>
