<svg width="30" height="29" viewBox="0 0 30 29" fill="none" xmlns="http://www.w3.org/2000/svg">
<path d="M3.03926 27.3836C2.20346 27.3836 1.48822 27.0862 0.893542 26.4916C0.29886 25.8969 0.00101309 25.1811 0 24.3443V3.06953C0 2.23373 0.297847 1.5185 0.893542 0.923815C1.48924 0.329134 2.20447 0.0312865 3.03926 0.0302734H24.3141C25.1499 0.0302734 25.8656 0.328121 26.4613 0.923815C27.057 1.51951 27.3543 2.23475 27.3533 3.06953V9.18603C27.3533 9.6166 27.2074 9.97118 26.9157 10.2498C26.6239 10.5284 26.2632 10.6677 25.8337 10.6677C25.4041 10.6677 25.0435 10.5218 24.7517 10.23C24.4599 9.93825 24.3141 9.57759 24.3141 9.14804V3.06953H3.03926V16.7462H8.43394C8.73786 16.7462 9.0038 16.8161 9.23174 16.9559C9.45969 17.0957 9.63698 17.2791 9.76361 17.506C10.0422 17.9366 10.3527 18.2977 10.6951 18.5895C11.0376 18.8813 11.4236 19.128 11.8531 19.3296C12.1317 19.4562 12.3536 19.6461 12.5187 19.8994C12.6838 20.1527 12.7659 20.4313 12.7649 20.7352C12.7649 21.2418 12.5688 21.6662 12.1768 22.0087C11.7847 22.3511 11.2969 22.4205 10.7134 22.2169C10.0549 22.0142 9.47894 21.685 8.98556 21.2291C8.49219 20.7732 8.02972 20.292 7.59814 19.7854H3.03926V24.3443H11.2453C11.6758 24.3443 12.037 24.4902 12.3287 24.782C12.6205 25.0738 12.7659 25.4344 12.7649 25.864C12.7639 26.2935 12.618 26.6547 12.3272 26.9475C12.0365 27.2402 11.6758 27.3856 11.2453 27.3836H3.03926ZM20.8569 26.6238C20.553 26.4971 20.2683 26.3644 20.0029 26.2256C19.7374 26.0868 19.4649 25.9156 19.1853 25.712L17.5517 26.2059C17.3744 26.2565 17.2098 26.2505 17.0578 26.1876C16.9059 26.1248 16.7792 26.0169 16.6779 25.864L15.7661 24.3443C15.6648 24.1924 15.6395 24.0277 15.6902 23.8505C15.7408 23.6732 15.8295 23.5212 15.9561 23.3946L17.2098 22.2928C17.1591 21.9889 17.1338 21.6597 17.1338 21.3051C17.1338 20.9505 17.1591 20.6212 17.2098 20.3173L15.9561 19.2156C15.8295 19.0889 15.7408 18.937 15.6902 18.7597C15.6395 18.5824 15.6648 18.4178 15.7661 18.2658L16.6779 16.7462C16.7792 16.5942 16.9059 16.4868 17.0578 16.424C17.2098 16.3612 17.3744 16.3546 17.5517 16.4043L19.1853 16.8982C19.4639 16.6955 19.7364 16.5248 20.0029 16.386C20.2693 16.2472 20.554 16.114 20.8569 15.9864L21.1988 14.3148C21.2495 14.1375 21.332 13.9916 21.4465 13.8771C21.561 13.7627 21.719 13.7059 21.9206 13.7069H23.7442C23.9468 13.7069 24.1054 13.7642 24.2198 13.8786C24.3343 13.9931 24.4164 14.1385 24.466 14.3148L24.8079 15.9864C25.1119 16.113 25.397 16.2462 25.6635 16.386C25.9299 16.5258 26.2019 16.6965 26.4795 16.8982L28.1131 16.4043C28.2904 16.3536 28.455 16.3602 28.607 16.424C28.759 16.4879 28.8856 16.5952 28.9869 16.7462L29.8987 18.2658C30 18.4178 30.0253 18.5824 29.9747 18.7597C29.924 18.937 29.8354 19.0889 29.7087 19.2156L28.455 20.3173C28.5057 20.6212 28.531 20.9505 28.531 21.3051C28.531 21.6597 28.5057 21.9889 28.455 22.2928L29.7087 23.3946C29.8354 23.5212 29.924 23.6732 29.9747 23.8505C30.0253 24.0277 30 24.1924 29.8987 24.3443L28.9869 25.864C28.8856 26.0159 28.759 26.1238 28.607 26.1876C28.455 26.2515 28.2904 26.2575 28.1131 26.2059L26.4795 25.712C26.2009 25.9146 25.9289 26.0858 25.6635 26.2256C25.3981 26.3654 25.1129 26.4982 24.8079 26.6238L24.466 28.2954C24.4154 28.4727 24.3333 28.6185 24.2198 28.733C24.1064 28.8475 23.9478 28.9042 23.7442 28.9032H21.9206C21.718 28.9032 21.56 28.8465 21.4465 28.733C21.3331 28.6196 21.2505 28.4737 21.1988 28.2954L20.8569 26.6238ZM22.8324 24.3443C23.6682 24.3443 24.384 24.047 24.9797 23.4523C25.5753 22.8576 25.8727 22.1419 25.8717 21.3051C25.8707 20.4683 25.5733 19.753 24.9797 19.1594C24.386 18.5657 23.6702 18.2678 22.8324 18.2658C21.9946 18.2638 21.2794 18.5616 20.6867 19.1594C20.0941 19.7571 19.7962 20.4723 19.7932 21.3051C19.7901 22.1378 20.088 22.8536 20.6867 23.4523C21.2854 24.051 22.0007 24.3484 22.8324 24.3443Z" fill="#B20021"/>
</svg>
