<svg width="17" height="17" viewBox="0 0 17 17" fill="none" xmlns="http://www.w3.org/2000/svg">
<path fill-rule="evenodd" clip-rule="evenodd" d="M5.45001 0.200195H11.45C14.211 0.200195 16.45 2.4392 16.45 5.2002V11.2002C16.45 13.9612 14.211 16.2002 11.45 16.2002H5.45001C2.68901 16.2002 0.450012 13.9612 0.450012 11.2002V5.2002C0.450012 2.4392 2.68901 0.200195 5.45001 0.200195ZM11.45 14.7002C13.38 14.7002 14.95 13.1302 14.95 11.2002V5.2002C14.95 3.2702 13.38 1.7002 11.45 1.7002H5.45001C3.52001 1.7002 1.95001 3.2702 1.95001 5.2002V11.2002C1.95001 13.1302 3.52001 14.7002 5.45001 14.7002H11.45Z" fill="#2F4858"/>
<path fill-rule="evenodd" clip-rule="evenodd" d="M4.45001 8.2002C4.45001 5.9912 6.24101 4.2002 8.45001 4.2002C10.659 4.2002 12.45 5.9912 12.45 8.2002C12.45 10.4092 10.659 12.2002 8.45001 12.2002C6.24101 12.2002 4.45001 10.4092 4.45001 8.2002ZM5.95001 8.2002C5.95001 9.5782 7.07201 10.7002 8.45001 10.7002C9.82801 10.7002 10.95 9.5782 10.95 8.2002C10.95 6.8212 9.82801 5.7002 8.45001 5.7002C7.07201 5.7002 5.95001 6.8212 5.95001 8.2002Z" fill="#2F4858"/>
<circle cx="12.75" cy="3.9002" r="0.533" fill="#2F4858"/>
</svg>
