<svg width="20" height="21" viewBox="0 0 20 21" fill="none" xmlns="http://www.w3.org/2000/svg">
<path d="M3.93556 16.8113C3.52667 16.8113 3.18533 16.6744 2.91156 16.4006C2.63719 16.1263 2.5 15.7846 2.5 15.3757V5.80241C2.5 5.39353 2.63719 5.05219 2.91156 4.77841C3.18533 4.50404 3.52667 4.36686 3.93556 4.36686H17.0644C17.4733 4.36686 17.8147 4.50404 18.0884 4.77841C18.3628 5.05219 18.5 5.39353 18.5 5.80241V15.3757C18.5 15.7846 18.3631 16.126 18.0893 16.3997C17.815 16.6741 17.4733 16.8113 17.0644 16.8113H3.93556ZM10.5 10.6913L3.38889 6.04242V15.3757C3.38889 15.5352 3.44015 15.6661 3.54267 15.7686C3.64519 15.8712 3.77615 15.9224 3.93556 15.9224H17.0644C17.2239 15.9224 17.3548 15.8712 17.4573 15.7686C17.5599 15.6661 17.6111 15.5352 17.6111 15.3757V6.04242L10.5 10.6913ZM10.5 9.70019L17.3373 5.25575H3.66267L10.5 9.70019ZM3.38889 6.04242V5.25575V15.3757C3.38889 15.5352 3.44015 15.6661 3.54267 15.7686C3.64519 15.8712 3.77615 15.9224 3.93556 15.9224H3.38889V6.04242Z" fill="#2F4858"/>
</svg>
