<svg width="20" height="21" viewBox="0 0 20 21" fill="none" xmlns="http://www.w3.org/2000/svg">
<path fill-rule="evenodd" clip-rule="evenodd" d="M8.68566 3.33714C9.49341 2.52926 10.589 2.07533 11.7314 2.0752H13.9468C14.11 2.0752 14.2665 2.14003 14.3819 2.25544C14.4973 2.37084 14.5622 2.52737 14.5622 2.69058V5.64443C14.5622 5.80764 14.4973 5.96416 14.3819 6.07957C14.2665 6.19498 14.11 6.25981 13.9468 6.25981H11.7314C11.7152 6.25981 11.6992 6.26299 11.6843 6.26918C11.6694 6.27536 11.6558 6.28443 11.6444 6.29586C11.6329 6.30729 11.6239 6.32086 11.6177 6.33579C11.6115 6.35072 11.6083 6.36672 11.6083 6.38289V7.98289H13.9468C14.0403 7.98284 14.1327 8.00411 14.2168 8.04511C14.3009 8.0861 14.3745 8.14573 14.4321 8.21946C14.4897 8.29318 14.5297 8.37907 14.5491 8.47059C14.5685 8.56211 14.5668 8.65685 14.5441 8.74761L13.8057 11.7015C13.7723 11.8346 13.6955 11.9528 13.5872 12.0373C13.479 12.1217 13.3456 12.1676 13.2083 12.1675H11.6083V17.4598C11.6083 17.623 11.5435 17.7795 11.4281 17.895C11.3127 18.0104 11.1562 18.0752 10.9929 18.0752H8.0391C7.87589 18.0752 7.71936 18.0104 7.60396 17.895C7.48855 17.7795 7.42371 17.623 7.42371 17.4598V12.1675H5.82371C5.6605 12.1675 5.50398 12.1027 5.38857 11.9873C5.27316 11.8719 5.20833 11.7153 5.20833 11.5521V8.59827C5.20833 8.51746 5.22425 8.43744 5.25517 8.36277C5.2861 8.28811 5.33143 8.22027 5.38857 8.16313C5.44571 8.10599 5.51355 8.06066 5.58822 8.02973C5.66288 7.99881 5.7429 7.98289 5.82371 7.98289H7.42371V6.38289C7.42385 5.24047 7.87778 4.14489 8.68566 3.33714ZM11.7314 3.30596C10.9154 3.30596 10.1327 3.63014 9.55569 4.20717C8.97866 4.78421 8.65448 5.56684 8.65448 6.38289V8.59827C8.65448 8.76148 8.58965 8.91801 8.47424 9.03342C8.35883 9.14882 8.20231 9.21366 8.0391 9.21366H6.4391V10.9367H8.0391C8.20231 10.9367 8.35883 11.0016 8.47424 11.117C8.58965 11.2324 8.65448 11.3889 8.65448 11.5521V16.8444H10.3776V11.5521C10.3776 11.3889 10.4424 11.2324 10.5578 11.117C10.6732 11.0016 10.8297 10.9367 10.9929 10.9367H12.7275L13.1583 9.21366H10.9929C10.8297 9.21366 10.6732 9.14882 10.5578 9.03342C10.4424 8.91801 10.3776 8.76148 10.3776 8.59827V6.38289C10.3776 6.02383 10.5202 5.67947 10.7741 5.42557C11.028 5.17168 11.3723 5.02904 11.7314 5.02904H13.3314V3.30596H11.7314Z" fill="#2F4858"/>
</svg>
