<svg width="26" height="31" viewBox="0 0 26 31" fill="none" xmlns="http://www.w3.org/2000/svg">
<path d="M10.2222 18.5893L5.36111 25.012H20.5833L16.8194 20.1847L14.0833 23.3756L10.2222 18.5893ZM3.27778 27.7393V8.64837H22.6667V27.7393H3.27778ZM13 2.37564L16.625 5.96201H9.34722L13 2.37564ZM3.27778 5.96201C2.58333 5.96201 1.88889 6.2211 1.34722 6.75292C0.777778 7.28473 0.5 7.91201 0.5 8.64837V27.7393C0.5 28.4211 0.777778 29.1029 1.34722 29.6347C1.88889 30.1938 2.58333 30.4666 3.27778 30.4666H22.6667C23.4167 30.4666 24.0556 30.1938 24.625 29.6347C25.1806 29.1029 25.5 28.4211 25.5 27.7393V8.64837C25.5 7.91201 25.1806 7.28473 24.625 6.75292C24.0556 6.2211 23.4167 5.96201 22.6667 5.96201H18.5556L13 0.466553L7.38889 5.96201H3.27778Z" fill="#B20021"/>
</svg>
